<svg xmlns="http://www.w3.org/2000/svg" viewBox="0 0 1280 240"><defs><style>.cls-1{fill:#fff;}.cls-2{fill:#27c1e3;}</style></defs><title>logo</title><g id="Layer_2" data-name="Layer 2"><g id="Layer_3" data-name="Layer 3"><rect class="cls-1" width="1280" height="240" rx="15.47" ry="15.47"/><rect class="cls-2" x="20" y="20" width="1240" height="200"/></g><g id="Layer_1-2" data-name="Layer 1"><path class="cls-1" d="M90,60h26v94h94v26H90Z"/><path class="cls-1" d="M402,86H311v21h74v26H311v21h91v26H282V60H402Z"/><path class="cls-1" d="M579.33,60A24.72,24.72,0,0,1,604,84.67v70.66A24.72,24.72,0,0,1,579.33,180H508.67A24.66,24.66,0,0,1,484,155.33V84.67A24.66,24.66,0,0,1,508.67,60ZM510,154h68V86H510Z"/><path class="cls-1" d="M780,60h26V180H779.38L712,99.67V180H686V60h26.71L780,140Z"/><path class="cls-1" d="M998,60V86H951v94H925V86H878V60Z"/><path class="cls-1" d="M1165.33,60A24.72,24.72,0,0,1,1190,84.67v70.66A24.72,24.72,0,0,1,1165.33,180h-70.66A24.66,24.66,0,0,1,1070,155.33V84.67A24.66,24.66,0,0,1,1094.67,60ZM1096,154h68V86h-68Z"/></g></g></svg>